; OM File Header - Saved 2014/07/16 19:07:41
; (6.080004 :patc (om-make-point 10 310) (om-make-point -4 -4) (om-make-point 1280 637) "" 183 0 "2014/03/10 11:27:55" "2014/06/13 19:21:01")
; End File Header
(in-package :om)(load-lib-for (quote nil))(setf *om-current-persistent* (om-load-patch1 "12RMatGen" (quote ((om-load-boxcomment "comment 12" (om-make-point 85 48) (quote "Retrograde of the Inversion") "" (om-make-point 671 539) nil (om-make-color 0 0 0) (om-make-font "Geneva" 10 :family "Geneva" :style (quote (:plain)) :mode (quote nil))) (om-load-boxout "output 4" 3 (om-make-point 622 478) (quote ((om-load-inputfun (quote input-funbox) "" "out" nil))) nil nil) (om-load-boxout "output 3" 2 (om-make-point 512 490) (quote ((om-load-inputfun (quote input-funbox) "" "out" nil))) nil nil) (om-load-boxout "output 2" 1 (om-make-point 362 483) (quote ((om-load-inputfun (quote input-funbox) "" "out" nil))) nil nil) (om-load-boxout "output" 0 (om-make-point 226 487) (quote ((om-load-inputfun (quote input-funbox) "" "out" nil))) nil nil) (om-load-boxin "input" 0 (om-make-point 181 124) "" nil nil nil) (om-load-boxcall (quote lispfun) "REVERSE 2" (quote reverse) (quote ((om-load-inputfun (quote input-funbox) "SEQUENCE" "SEQUENCE" nil))) (om-make-point 354 379) nil nil nil nil 1) (om-load-boxcall (quote genfun) "X->DX" (quote x->dx) (quote ((om-load-inputfun (quote input-funbox) "a list of numbers" "SELF" 0))) (om-make-point 519 248) nil nil nil nil 1) (om-load-boxcall (quote genfun) "OM*" (quote om*) (quote ((om-load-inputfun (quote input-funbox) "first input" "SELF" 0) (om-load-inputfun (quote input-funbox) "second input" "NUM" -1))) (om-make-point 516 323) (om-make-point 70 35) nil nil nil 1) (om-load-boxcall (quote bastype) "aux1" (quote t) (quote nil) (om-make-point 566 292) (om-make-point 24 27) -1 "-1" nil) (om-load-boxcall (quote genfun) "DX->X" (quote dx->x) (quote ((om-load-inputfun (quote input-funbox) "a number" "START" 0) (om-load-inputfun (quote input-funbox) "a list of numbers" "LIST" (list 1 1)))) (om-make-point 525 370) nil nil nil nil 1) (om-load-boxcall (quote lispfun) "FIRST" (quote first) (quote ((om-load-inputfun (quote input-funbox) "LIST" "LIST" nil))) (om-make-point 476 319) nil nil nil nil 1) (om-load-boxcall (quote lispfun) "REVERSE" (quote reverse) (quote ((om-load-inputfun (quote input-funbox) "SEQUENCE" "SEQUENCE" nil))) (om-make-point 619 401) nil nil nil nil 1) (om-load-boxcomment "comment 15" (om-make-point 73 26) (quote "Original") "" (om-make-point 236 540) nil (om-make-color 0 0 0) (om-make-font "Geneva" 10 :family "Geneva" :style (quote (:plain)) :mode (quote nil))) (om-load-boxcomment "comment 14" (om-make-point 76 23) (quote "Retrograde") "" (om-make-point 371 546) nil (om-make-color 0 0 0) (om-make-font "Geneva" 10 :family "Geneva" :style (quote (:plain)) :mode (quote nil))) (om-load-boxcomment "comment 13" (om-make-point 59 21) (quote "Inversion") "" (om-make-point 493 542) nil (om-make-color 0 0 0) (om-make-font "Geneva" 10 :family "Geneva" :style (quote (:plain)) :mode (quote nil))) (om-load-boxcomment "comment 11" (om-make-point 32 29) (quote "A") "" (om-make-point 286 141) nil (om-make-color 0 0 0) (om-make-font "Geneva" 10 :family "Geneva" :style (quote (:plain)) :mode (quote nil))) (om-load-boxcomment "comment 10" (om-make-point 23 33) (quote "B") "" (om-make-point 177 394) nil (om-make-color 0 0 0) (om-make-font "Geneva" 10 :family "Geneva" :style (quote (:plain)) :mode (quote nil))) (om-load-boxcomment "comment 9" (om-make-point 35 38) (quote "C") "" (om-make-point 218 540) nil (om-make-color 0 0 0) (om-make-font "Geneva" 10 :family "Geneva" :style (quote (:plain)) :mode (quote nil))) (om-load-boxcomment "comment 8" (om-make-point 24 28) (quote "E") "" (om-make-point 350 546) nil (om-make-color 0 0 0) (om-make-font "Geneva" 10 :family "Geneva" :style (quote (:plain)) :mode (quote nil))) (om-load-boxcomment "comment 7" (om-make-point 21 29) (quote "L") "" (om-make-point 477 542) nil (om-make-color 0 0 0) (om-make-font "Geneva" 10 :family "Geneva" :style (quote (:plain)) :mode (quote nil))) (om-load-boxcomment "comment 6" (om-make-point 17 25) (quote "N") "" (om-make-point 632 559) nil (om-make-color 0 0 0) (om-make-font "Geneva" 10 :family "Geneva" :style (quote (:plain)) :mode (quote nil))) (om-load-boxcomment "comment 5" (om-make-point 16 28) (quote "M") "" (om-make-point 665 405) nil (om-make-color 0 0 0) (om-make-font "Geneva" 10 :family "Geneva" :style (quote (:plain)) :mode (quote nil))) (om-load-boxcomment "comment 4" (om-make-point 18 35) (quote "I") "" (om-make-point 505 393) nil (om-make-color 0 0 0) (om-make-font "Geneva" 10 :family "Geneva" :style (quote (:plain)) :mode (quote nil))) (om-load-boxcomment "comment 3" (om-make-point 48 45) (quote "G") "" (om-make-point 587 330) nil (om-make-color 0 0 0) (om-make-font "Geneva" 10 :family "Geneva" :style (quote (:plain)) :mode (quote nil))) (om-load-boxcomment "comment 2" (om-make-point 24 26) (quote "F") "" (om-make-point 554 259) nil (om-make-color 0 0 0) (om-make-font "Geneva" 10 :family "Geneva" :style (quote (:plain)) :mode (quote nil))) (om-load-boxcomment "comment" (om-make-point 25 33) (quote "H") "" (om-make-point 454 322) nil (om-make-color 0 0 0) (om-make-font "Geneva" 10 :family "Geneva" :style (quote (:plain)) :mode (quote nil))))) (quote ((12 0 1 0 nil 0) (10 0 2 0 nil 0) (6 0 3 0 nil 0) (5 0 4 0 nil 0) (5 0 6 0 nil 0) (5 0 7 0 nil 0) (7 0 8 0 nil 0) (9 0 8 1 nil 0) (11 0 10 0 nil 0) (8 0 10 1 nil 0) (5 0 11 0 nil 0) (10 0 12 0 nil 0))) nil 6.080004))
