; OM File Header - Saved 2014/06/13 19:21:01
; (6.080004 :patc (om-make-point 10 10) (om-make-point 0 0) (om-make-point 1278 454) "" 183 0 "2014/02/28 19:05:36" "2014/06/13 19:21:01")
; End File Header
; External resources 
; (list (list (quote :abstraction) "#P\"C:serialscoregenerator.omp\"" "#P\"C:LispFunction.oml\"" "#P\"C:12RMatGen.omp\""))
(in-package :om)(load-lib-for (quote ("twelvetonelib")))(setf *om-current-persistent* (om-load-patch1 "12rowassistant" (quote ((om-load-boxcall (quote genfun) "SERIESGENERATOR" (quote mfl::seriesgenerator) (quote ((om-load-inputfun (quote input-funbox) "" "LISTAB" nil) (om-load-inputfun (quote input-funbox) "" "MIN" nil) (om-load-inputfun (quote input-funbox) "" "MAX" nil))) (om-make-point 540 273) nil nil nil nil 1) (om-load-boxcall (quote genfun) "OMAND" (quote omand) (quote ((om-load-inputfun (quote input-funbox) "something" "SELF" nil) (om-load-inputfun (quote input-funbox) "other things" "REST" nil))) (om-make-point 643 771) nil nil nil nil 1) (om-load-boxcomment "comment" (om-make-point 100 60) (quote "Ajusto los valores a los Midicents") "" (om-make-point 726 405) nil (om-make-color 0 0 0) (om-make-font "Verdana" 12 :family "Verdana" :style (quote (:plain)) :mode (quote nil))) (om-load-boxcomment "comment" (om-make-point 100 60) (quote "Genero una serie con las restricciones") "" (om-make-point 629 253) nil (om-make-color 0 0 0) (om-make-font "Verdana" 12 :family "Verdana" :style (quote (:plain)) :mode (quote nil))) (om-load-boxcomment "comment" (om-make-point 100 60) (quote "Mostramos la partitura y la exportamos") "" (om-make-point 730 678) nil (om-make-color 0 0 0) (om-make-font "Verdana" 12 :family "Verdana" :style (quote (:plain)) :mode (quote nil))) (om-load-boxcomment "comment" (om-make-point 100 60) (quote "Generamos una partitura con estas series") "" (om-make-point 172 730) nil (om-make-color 0 0 0) (om-make-font "Verdana" 12 :family "Verdana" :style (quote (:plain)) :mode (quote nil))) (om-load-boxwithed1 (quote box-with-win) "exportScore" (quote omloop) (quote ((om-load-inputfun (quote input-funbox) "" "input0" nil))) (om-make-point 667 671) nil nil nil (list (om-load-boxcall (quote genfun) "OUTFILE" (quote outfile) (quote ((om-load-inputfun (quote input-funbox) "file name" "NAME" ""))) (om-make-point 321 216) nil nil nil nil 1) (om-load-boxcall (quote genfun) "OM-RANDOM" (quote om-random) (quote ((om-load-inputfun (quote input-funbox) "min" "LOW" 1) (om-load-inputfun (quote input-funbox) "max" "HIGH" 4))) (om-make-point 890 263) nil nil nil nil 1) (om-load-boxcall (quote lispfun) "CONCATENATE" (quote concatenate) (quote ((om-load-inputfun (quote input-funbox) "RESULT-TYPE" "RESULT-TYPE" (quote string)) (om-load-inputfun (quote input-funbox) "add-input" "add-input" "voice") (om-load-inputfun (quote input-funbox) "add-input" "add-input" nil) (om-load-inputfun (quote input-funbox) "add-input" "add-input" ".xml"))) (om-make-point 350 172) nil nil nil nil 1) (om-load-boxcall (quote lispfun) "WRITE-TO-STRING" (quote write-to-string) (quote ((om-load-inputfun (quote input-funbox) "OBJECT" "OBJECT" nil))) (om-make-point 354 91) nil nil nil nil 1) (om-load-boxcall (quote genfun) "EXPORT-MUSICXML" (quote export-musicxml) (quote ((om-load-inputfun (quote input-funbox) "no documentation" "SELF" (quote t)) (om-load-inputfun (quote input-funbox) "no documentation" "KEYS" (list (list (quote g) 2))) (om-load-inputfun (quote input-funbox) "no documentation" "APPROX" 2) (om-load-inputfun (quote input-funbox) "no documentation" "PATH" (quote t)))) (om-make-point 128 233) nil nil nil nil 1) (om-load-boxcall (quote lispfun) "NTH" (quote nth) (quote ((om-load-inputfun (quote input-funbox) "ORIG-N" "ORIG-N" nil) (om-load-inputfun (quote input-funbox) "ORIG-LIST" "ORIG-LIST" nil))) (om-make-point 108 172) nil nil nil nil 1) (om-load-boxcall (quote lispfun) "LENGTH" (quote length) (quote ((om-load-inputfun (quote input-funbox) "SEQUENCE" "SEQUENCE" nil))) (om-make-point 142 79) nil nil nil nil 1) (om-load-boxcall (quote genfun) "for" (quote forloop) (quote ((om-load-inputfun (quote input-funbox) "low value" "FROM" 0) (om-load-inputfun (quote input-funbox) "high value" "TO" 10))) (om-make-point 227 129) nil nil nil nil 1) (om-load-boxin "input0" 0 (om-make-point 5 40) "" nil nil nil) (om-load-seqbox "finally" (quote finaldo) (quote ((om-load-inputfun (quote input-funbox) "value to return" "VAL" nil))) (om-make-point 351 298) nil nil nil 0) (om-load-seqbox "eachTime" (quote loopdo) (quote ((om-load-inputfun (quote input-funbox) "operations to do" "OP" nil))) (om-make-point 167 294) nil nil nil 0)) (quote ((2 0 0 0 nil 0) (3 0 2 2 nil 0) (7 0 3 0 nil 0) (5 0 4 0 nil 0) (0 0 4 3 nil 0) (7 0 5 0 nil 0) (8 0 5 1 nil 0) (8 0 6 0 nil 0) (6 0 7 1 nil 0) (4 0 10 0 nil 0))) 1 "exportscore" nil) (om-load-boxcall (quote patch-box) "serialscoregenerator" (quote ("elements" "TFG" "serialscoregenerator")) (quote ((om-load-inputfun (quote input-funbox) "" "input" nil) (om-load-inputfun (quote input-funbox) "" "input 2" nil) (om-load-inputfun (quote input-funbox) "" "input 3" nil) (om-load-inputfun (quote input-funbox) "" "input 4" nil))) (om-make-point 291 712) nil nil "&" nil 1) (om-load-editor-box1 "OMSHEET" (quote omsheet) (quote ((om-load-inputfun (quote input-funbox) "object" "self" nil) (om-load-inputfun (quote input-funbox) "list of sheet tracks or musical objects" "voices" nil) (om-load-inputfun (quote input-funbox) "list of internal patches" "patch-list" nil))) (om-make-point 559 678) (om-make-point 40 60) (if (find-class (quote omsheet) nil) (let ((newobj (make-instance (quote omsheet) :voices (list (let ((sheet-track (if (find-class (quote sheet-track) nil) (let ((newobj (make-instance (quote sheet-track) :objs (list (let ((sheet-obj (make-instance (quote sheet-track-obj) :id 0 :start-t 0 :obj (let ((newobj (when (find-class (quote voice) nil) (make-instance (quote voice) :tree (quote (127/4 (((4 4) (1 (1 (7.0 1)) 1.0 (1 (3.0 1)))) ((4 4) (2.0 (1 (3.0 -4 -1.0)) -1)) ((4 4) (-3 (1 (-1 3)))) ((4 4) (4.0)) ((4 4) ((1 (1.0 7)) 3.0)) ((4 4) ((1 (4.0 1.0 3)) 3.0)) ((4 4) (2.0 (1 (1.0 3)) (1 (3.0 -4 -1.0)))) ((4 4) ((1 (-7 1)) 1.0 2)) ((4 4) ((1 (1.0 3)) (1 (3.0 4 1.0)) 2.0)) ((4 4) ((1 (3.0 4 1.0)) 2.0 (1 (3.0 -1)))) ((4 4) (-4)) ((4 4) (-1 (1 (-3 4 1.0)) 2.0)) ((4 4) (3.0 1)) ((4 4) (4.0)) ((4 4) ((1 (4.0 1.0 3)) 3.0)) ((4 4) (1.0 (1 (7.0 1)) 2.0)) ((4 4) ((1 (7.0 1)) 3.0)) ((4 4) (1.0 (1 (3.0 4 1.0)) (1 (1.0 1)) 1.0)) ((4 4) (3.0 (1 (3.0 1)))) ((4 4) (3.0 (1 (1.0 -7)))) ((4 4) (-4)) ((4 4) (-1 (1 (-1 7)) 1.0 1)) ((4 4) ((1 (1.0 7)) 3.0)) ((4 4) (1.0 -3)) ((4 4) (-1 (1 (-1 7)) 1.0 1)) ((4 4) (3.0 (1 (7.0 1)))) ((4 4) (2.0 (1 (7.0 1)) 1.0)) ((4 4) (4.0)) ((4 4) ((1 (1.0 7)) 1.0 (1 (3.0 3 2)) 1.0)) ((4 4) (4.0)) ((4 4) (4)) ((3 4) (2.0 -1))))) :chords (load-obj-list-from-save (quote ((let ((thechord (make-instance (quote chord) :lmidic (quote (6300)) :ldur (quote (1000)) :lvel (quote (80)) :loffset (quote (0)) :lchan (quote (1))))) (load-port-info thechord (quote (nil))) (init-mus-color thechord (quote nil)) (set-extra-pairs thechord (quote nil)) (set-tonalite thechord nil) thechord) (let ((thechord (make-instance (quote chord) :lmidic (quote (6200)) :ldur (quote (125)) :lvel (quote (80)) :loffset (quote (0)) :lchan (quote (1))))) (load-port-info thechord (quote (nil))) (init-mus-color thechord (quote nil)) (set-extra-pairs thechord (quote nil)) (set-tonalite thechord nil) thechord) (let ((thechord (make-instance (quote chord) :lmidic (quote (6400)) :ldur (quote (250)) :lvel (quote (80)) :loffset (quote (0)) :lchan (quote (1))))) (load-port-info thechord (quote (nil))) (init-mus-color thechord (quote nil)) (set-extra-pairs thechord (quote nil)) (set-tonalite thechord nil) thechord) (let ((thechord (make-instance (quote chord) :lmidic (quote (6500)) :ldur (quote (750)) :lvel (quote (80)) :loffset (quote (0)) :lchan (quote (1))))) (load-port-info thechord (quote (nil))) (init-mus-color thechord (quote nil)) (set-extra-pairs thechord (quote nil)) (set-tonalite thechord nil) thechord) (let ((thechord (make-instance (quote chord) :lmidic (quote (6100)) :ldur (quote (875)) :lvel (quote (80)) :loffset (quote (0)) :lchan (quote (1))))) (load-port-info thechord (quote (nil))) (init-mus-color thechord (quote nil)) (set-extra-pairs thechord (quote nil)) (set-tonalite thechord nil) thechord) (let ((thechord (make-instance (quote chord) :lmidic (quote (5900)) :ldur (quote (375)) :lvel (quote (80)) :loffset (quote (0)) :lchan (quote (1))))) (load-port-info thechord (quote (nil))) (init-mus-color thechord (quote nil)) (set-extra-pairs thechord (quote nil)) (set-tonalite thechord nil) thechord) (let ((thechord (make-instance (quote chord) :lmidic (quote (5600)) :ldur (quote (750)) :lvel (quote (80)) :loffset (quote (0)) :lchan (quote (1))))) (load-port-info thechord (quote (nil))) (init-mus-color thechord (quote nil)) (set-extra-pairs thechord (quote nil)) (set-tonalite thechord nil) thechord) (let ((thechord (make-instance (quote chord) :lmidic (quote (6600)) :ldur (quote (125)) :lvel (quote (80)) :loffset (quote (0)) :lchan (quote (1))))) (load-port-info thechord (quote (nil))) (init-mus-color thechord (quote nil)) (set-extra-pairs thechord (quote nil)) (set-tonalite thechord nil) thechord) (let ((thechord (make-instance (quote chord) :lmidic (quote (6700)) :ldur (quote (2000)) :lvel (quote (80)) :loffset (quote (0)) :lchan (quote (1))))) (load-port-info thechord (quote (nil))) (init-mus-color thechord (quote nil)) (set-extra-pairs thechord (quote nil)) (set-tonalite thechord nil) thechord) (let ((thechord (make-instance (quote chord) :lmidic (quote (5800)) :ldur (quote (750)) :lvel (quote (80)) :loffset (quote (0)) :lchan (quote (1))))) (load-port-info thechord (quote (nil))) (init-mus-color thechord (quote nil)) (set-extra-pairs thechord (quote nil)) (set-tonalite thechord nil) thechord) (let ((thechord (make-instance (quote chord) :lmidic (quote (5700)) :ldur (quote (500)) :lvel (quote (80)) :loffset (quote (0)) :lchan (quote (1))))) (load-port-info thechord (quote (nil))) (init-mus-color thechord (quote nil)) (set-extra-pairs thechord (quote nil)) (set-tonalite thechord nil) thechord) (let ((thechord (make-instance (quote chord) :lmidic (quote (6000)) :ldur (quote (500)) :lvel (quote (80)) :loffset (quote (0)) :lchan (quote (1))))) (load-port-info thechord (quote (nil))) (init-mus-color thechord (quote nil)) (set-extra-pairs thechord (quote nil)) (set-tonalite thechord nil) thechord) (let ((thechord (make-instance (quote chord) :lmidic (quote (5700)) :ldur (quote (500)) :lvel (quote (80)) :loffset (quote (0)) :lchan (quote (1))))) (load-port-info thechord (quote (nil))) (init-mus-color thechord (quote nil)) (set-extra-pairs thechord (quote nil)) (set-tonalite thechord nil) thechord) (let ((thechord (make-instance (quote chord) :lmidic (quote (6400)) :ldur (quote (1000)) :lvel (quote (80)) :loffset (quote (0)) :lchan (quote (1))))) (load-port-info thechord (quote (nil))) (init-mus-color thechord (quote nil)) (set-extra-pairs thechord (quote nil)) (set-tonalite thechord nil) thechord) (let ((thechord (make-instance (quote chord) :lmidic (quote (5500)) :ldur (quote (375)) :lvel (quote (80)) :loffset (quote (0)) :lchan (quote (1))))) (load-port-info thechord (quote (nil))) (init-mus-color thechord (quote nil)) (set-extra-pairs thechord (quote nil)) (set-tonalite thechord nil) thechord) (let ((thechord (make-instance (quote chord) :lmidic (quote (5900)) :ldur (quote (125)) :lvel (quote (80)) :loffset (quote (0)) :lchan (quote (1))))) (load-port-info thechord (quote (nil))) (init-mus-color thechord (quote nil)) (set-extra-pairs thechord (quote nil)) (set-tonalite thechord nil) thechord) (let ((thechord (make-instance (quote chord) :lmidic (quote (5600)) :ldur (quote (125)) :lvel (quote (80)) :loffset (quote (0)) :lchan (quote (1))))) (load-port-info thechord (quote (nil))) (init-mus-color thechord (quote nil)) (set-extra-pairs thechord (quote nil)) (set-tonalite thechord nil) thechord) (let ((thechord (make-instance (quote chord) :lmidic (quote (5400)) :ldur (quote (500)) :lvel (quote (80)) :loffset (quote (0)) :lchan (quote (1))))) (load-port-info thechord (quote (nil))) (init-mus-color thechord (quote nil)) (set-extra-pairs thechord (quote nil)) (set-tonalite thechord nil) thechord) (let ((thechord (make-instance (quote chord) :lmidic (quote (5300)) :ldur (quote (500)) :lvel (quote (80)) :loffset (quote (0)) :lchan (quote (1))))) (load-port-info thechord (quote (nil))) (init-mus-color thechord (quote nil)) (set-extra-pairs thechord (quote nil)) (set-tonalite thechord nil) thechord) (let ((thechord (make-instance (quote chord) :lmidic (quote (6100)) :ldur (quote (250)) :lvel (quote (80)) :loffset (quote (0)) :lchan (quote (1))))) (load-port-info thechord (quote (nil))) (init-mus-color thechord (quote nil)) (set-extra-pairs thechord (quote nil)) (set-tonalite thechord nil) thechord) (let ((thechord (make-instance (quote chord) :lmidic (quote (6000)) :ldur (quote (875)) :lvel (quote (80)) :loffset (quote (0)) :lchan (quote (1))))) (load-port-info thechord (quote (nil))) (init-mus-color thechord (quote nil)) (set-extra-pairs thechord (quote nil)) (set-tonalite thechord nil) thechord) (let ((thechord (make-instance (quote chord) :lmidic (quote (6200)) :ldur (quote (1000)) :lvel (quote (80)) :loffset (quote (0)) :lchan (quote (1))))) (load-port-info thechord (quote (nil))) (init-mus-color thechord (quote nil)) (set-extra-pairs thechord (quote nil)) (set-tonalite thechord nil) thechord) (let ((thechord (make-instance (quote chord) :lmidic (quote (5800)) :ldur (quote (875)) :lvel (quote (80)) :loffset (quote (0)) :lchan (quote (1))))) (load-port-info thechord (quote (nil))) (init-mus-color thechord (quote nil)) (set-extra-pairs thechord (quote nil)) (set-tonalite thechord nil) thechord) (let ((thechord (make-instance (quote chord) :lmidic (quote (6300)) :ldur (quote (875)) :lvel (quote (80)) :loffset (quote (0)) :lchan (quote (1))))) (load-port-info thechord (quote (nil))) (init-mus-color thechord (quote nil)) (set-extra-pairs thechord (quote nil)) (set-tonalite thechord nil) thechord) (let ((thechord (make-instance (quote chord) :lmidic (quote (5400)) :ldur (quote (1000)) :lvel (quote (80)) :loffset (quote (0)) :lchan (quote (1))))) (load-port-info thechord (quote (nil))) (init-mus-color thechord (quote nil)) (set-extra-pairs thechord (quote nil)) (set-tonalite thechord nil) thechord) (let ((thechord (make-instance (quote chord) :lmidic (quote (4800)) :ldur (quote (125)) :lvel (quote (80)) :loffset (quote (0)) :lchan (quote (1))))) (load-port-info thechord (quote (nil))) (init-mus-color thechord (quote nil)) (set-extra-pairs thechord (quote nil)) (set-tonalite thechord nil) thechord) (let ((thechord (make-instance (quote chord) :lmidic (quote (5000)) :ldur (quote (125)) :lvel (quote (80)) :loffset (quote (0)) :lchan (quote (1))))) (load-port-info thechord (quote (nil))) (init-mus-color thechord (quote nil)) (set-extra-pairs thechord (quote nil)) (set-tonalite thechord nil) thechord) (let ((thechord (make-instance (quote chord) :lmidic (quote (5200)) :ldur (quote (875)) :lvel (quote (80)) :loffset (quote (0)) :lchan (quote (1))))) (load-port-info thechord (quote (nil))) (init-mus-color thechord (quote nil)) (set-extra-pairs thechord (quote nil)) (set-tonalite thechord nil) thechord) (let ((thechord (make-instance (quote chord) :lmidic (quote (4500)) :ldur (quote (375)) :lvel (quote (80)) :loffset (quote (0)) :lchan (quote (1))))) (load-port-info thechord (quote (nil))) (init-mus-color thechord (quote nil)) (set-extra-pairs thechord (quote nil)) (set-tonalite thechord nil) thechord) (let ((thechord (make-instance (quote chord) :lmidic (quote (5500)) :ldur (quote (250)) :lvel (quote (80)) :loffset (quote (0)) :lchan (quote (1))))) (load-port-info thechord (quote (nil))) (init-mus-color thechord (quote nil)) (set-extra-pairs thechord (quote nil)) (set-tonalite thechord nil) thechord) (let ((thechord (make-instance (quote chord) :lmidic (quote (4600)) :ldur (quote (4000)) :lvel (quote (80)) :loffset (quote (0)) :lchan (quote (1))))) (load-port-info thechord (quote (nil))) (init-mus-color thechord (quote nil)) (set-extra-pairs thechord (quote nil)) (set-tonalite thechord nil) thechord)))) :tempo (quote ((1/4 60) nil)) :legato 100 :ties (quote (nil nil nil nil nil nil nil nil nil nil nil nil nil nil nil nil nil nil nil nil nil nil nil nil nil nil nil nil nil nil nil)))))) (load-port-info newobj (quote nil)) (init-mus-color newobj (quote nil)) (set-extra-pairs newobj (quote nil)) (set-patch-pairs newobj (quote nil)) (set-name newobj nil) (set-tonalite newobj nil) newobj)))) (setf (end-t sheet-obj) 127000) (setf (obj-size sheet-obj) 20) (setf (obj-margin sheet-obj) 1) (setf (obj-staff sheet-obj) (quote g)) sheet-obj)) :from-file t))) (load-port-info newobj (quote ((nil)))) (init-mus-color newobj (quote nil)) (set-extra-pairs newobj (quote nil)) (set-patch-pairs newobj (quote nil)) (set-name newobj nil) (set-tonalite newobj nil) newobj)))) (setf (track-size sheet-track) 80) (setf (track-pos sheet-track) 1) sheet-track) (let ((sheet-track (if (find-class (quote sheet-track) nil) (let ((newobj (make-instance (quote sheet-track) :objs (list (let ((sheet-obj (make-instance (quote sheet-track-obj) :id 1 :start-t 0 :obj (let ((newobj (when (find-class (quote voice) nil) (make-instance (quote voice) :tree (quote (79/4 (((4 4) (1 3)) ((4 4) (1 (1 (3.0 1)) 1.0 (1 (1.0 1)))) ((4 4) (3.0 (1 (1.0 3)))) ((4 4) (1.0 (1 (3.0 1)) 2.0)) ((4 4) (1.0 (1 (1.0 3)) 1.0 (1 (3.0 1)))) ((4 4) (3 (1 (3.0 1)))) ((4 4) (2.0 (1 (1.0 1 2)) 1.0)) ((4 4) (1.0 (1 (1.0 1)) (1 (3.0 1)) 1.0)) ((4 4) (1.0 (1 (1.0 3)) 2.0)) ((4 4) ((1 (1.0 3)) 2.0 (1 (2.0 1 1)))) ((4 4) (3.0 1)) ((4 4) (1.0 (1 (1.0 3)) 2.0)) ((4 4) ((1 (1.0 1)) 1.0 (1 (1.0 2 1)) 1.0)) ((4 4) ((1 (3.0 1)) 2.0 (1 (2 1 1)))) ((4 4) (3.0 (1 (3.0 1)))) ((4 4) (1.0 (1 (1.0 -3)) 2)) ((4 4) ((1 (3.0 1)) 2.0 (1 (3.0 1)))) ((4 4) (3.0 1)) ((4 4) (2.0 (1 (3.0 1)) 1.0)) ((3 4) (1.0 1 (1 (1.0 -3))))))) :chords (load-obj-list-from-save (quote ((let ((thechord (make-instance (quote chord) :lmidic (quote (6300)) :ldur (quote (1000)) :lvel (quote (80)) :loffset (quote (0)) :lchan (quote (1))))) (load-port-info thechord (quote (nil))) (init-mus-color thechord (quote nil)) (set-extra-pairs thechord (quote nil)) (set-tonalite thechord nil) thechord) (let ((thechord (make-instance (quote chord) :lmidic (quote (6200)) :ldur (quote (3000)) :lvel (quote (80)) :loffset (quote (0)) :lchan (quote (1))))) (load-port-info thechord (quote (nil))) (init-mus-color thechord (quote nil)) (set-extra-pairs thechord (quote nil)) (set-tonalite thechord nil) thechord) (let ((thechord (make-instance (quote chord) :lmidic (quote (6400)) :ldur (quote (1000)) :lvel (quote (80)) :loffset (quote (0)) :lchan (quote (1))))) (load-port-info thechord (quote (nil))) (init-mus-color thechord (quote nil)) (set-extra-pairs thechord (quote nil)) (set-tonalite thechord nil) thechord) (let ((thechord (make-instance (quote chord) :lmidic (quote (6500)) :ldur (quote (250)) :lvel (quote (80)) :loffset (quote (0)) :lchan (quote (1))))) (load-port-info thechord (quote (nil))) (init-mus-color thechord (quote nil)) (set-extra-pairs thechord (quote nil)) (set-tonalite thechord nil) thechord) (let ((thechord (make-instance (quote chord) :lmidic (quote (6100)) :ldur (quote (500)) :lvel (quote (80)) :loffset (quote (0)) :lchan (quote (1))))) (load-port-info thechord (quote (nil))) (init-mus-color thechord (quote nil)) (set-extra-pairs thechord (quote nil)) (set-tonalite thechord nil) thechord) (let ((thechord (make-instance (quote chord) :lmidic (quote (5900)) :ldur (quote (750)) :lvel (quote (80)) :loffset (quote (0)) :lchan (quote (1))))) (load-port-info thechord (quote (nil))) (init-mus-color thechord (quote nil)) (set-extra-pairs thechord (quote nil)) (set-tonalite thechord nil) thechord) (let ((thechord (make-instance (quote chord) :lmidic (quote (5600)) :ldur (quote (250)) :lvel (quote (80)) :loffset (quote (0)) :lchan (quote (1))))) (load-port-info thechord (quote (nil))) (init-mus-color thechord (quote nil)) (set-extra-pairs thechord (quote nil)) (set-tonalite thechord nil) thechord) (let ((thechord (make-instance (quote chord) :lmidic (quote (6600)) :ldur (quote (750)) :lvel (quote (80)) :loffset (quote (0)) :lchan (quote (1))))) (load-port-info thechord (quote (nil))) (init-mus-color thechord (quote nil)) (set-extra-pairs thechord (quote nil)) (set-tonalite thechord nil) thechord) (let ((thechord (make-instance (quote chord) :lmidic (quote (6700)) :ldur (quote (250)) :lvel (quote (80)) :loffset (quote (0)) :lchan (quote (1))))) (load-port-info thechord (quote (nil))) (init-mus-color thechord (quote nil)) (set-extra-pairs thechord (quote nil)) (set-tonalite thechord nil) thechord) (let ((thechord (make-instance (quote chord) :lmidic (quote (5800)) :ldur (quote (3000)) :lvel (quote (80)) :loffset (quote (0)) :lchan (quote (1))))) (load-port-info thechord (quote (nil))) (init-mus-color thechord (quote nil)) (set-extra-pairs thechord (quote nil)) (set-tonalite thechord nil) thechord) (let ((thechord (make-instance (quote chord) :lmidic (quote (5700)) :ldur (quote (250)) :lvel (quote (80)) :loffset (quote (0)) :lchan (quote (1))))) (load-port-info thechord (quote (nil))) (init-mus-color thechord (quote nil)) (set-extra-pairs thechord (quote nil)) (set-tonalite thechord nil) thechord) (let ((thechord (make-instance (quote chord) :lmidic (quote (6000)) :ldur (quote (250)) :lvel (quote (80)) :loffset (quote (0)) :lchan (quote (1))))) (load-port-info thechord (quote (nil))) (init-mus-color thechord (quote nil)) (set-extra-pairs thechord (quote nil)) (set-tonalite thechord nil) thechord) (let ((thechord (make-instance (quote chord) :lmidic (quote (5700)) :ldur (quote (500)) :lvel (quote (80)) :loffset (quote (0)) :lchan (quote (1))))) (load-port-info thechord (quote (nil))) (init-mus-color thechord (quote nil)) (set-extra-pairs thechord (quote nil)) (set-tonalite thechord nil) thechord) (let ((thechord (make-instance (quote chord) :lmidic (quote (6400)) :ldur (quote (500)) :lvel (quote (80)) :loffset (quote (0)) :lchan (quote (1))))) (load-port-info thechord (quote (nil))) (init-mus-color thechord (quote nil)) (set-extra-pairs thechord (quote nil)) (set-tonalite thechord nil) thechord) (let ((thechord (make-instance (quote chord) :lmidic (quote (5500)) :ldur (quote (250)) :lvel (quote (80)) :loffset (quote (0)) :lchan (quote (1))))) (load-port-info thechord (quote (nil))) (init-mus-color thechord (quote nil)) (set-extra-pairs thechord (quote nil)) (set-tonalite thechord nil) thechord) (let ((thechord (make-instance (quote chord) :lmidic (quote (5900)) :ldur (quote (750)) :lvel (quote (80)) :loffset (quote (0)) :lchan (quote (1))))) (load-port-info thechord (quote (nil))) (init-mus-color thechord (quote nil)) (set-extra-pairs thechord (quote nil)) (set-tonalite thechord nil) thechord) (let ((thechord (make-instance (quote chord) :lmidic (quote (5600)) :ldur (quote (750)) :lvel (quote (80)) :loffset (quote (0)) :lchan (quote (1))))) (load-port-info thechord (quote (nil))) (init-mus-color thechord (quote nil)) (set-extra-pairs thechord (quote nil)) (set-tonalite thechord nil) thechord) (let ((thechord (make-instance (quote chord) :lmidic (quote (5400)) :ldur (quote (250)) :lvel (quote (80)) :loffset (quote (0)) :lchan (quote (1))))) (load-port-info thechord (quote (nil))) (init-mus-color thechord (quote nil)) (set-extra-pairs thechord (quote nil)) (set-tonalite thechord nil) thechord) (let ((thechord (make-instance (quote chord) :lmidic (quote (5300)) :ldur (quote (250)) :lvel (quote (80)) :loffset (quote (0)) :lchan (quote (1))))) (load-port-info thechord (quote (nil))) (init-mus-color thechord (quote nil)) (set-extra-pairs thechord (quote nil)) (set-tonalite thechord nil) thechord) (let ((thechord (make-instance (quote chord) :lmidic (quote (6100)) :ldur (quote (1000)) :lvel (quote (80)) :loffset (quote (0)) :lchan (quote (1))))) (load-port-info thechord (quote (nil))) (init-mus-color thechord (quote nil)) (set-extra-pairs thechord (quote nil)) (set-tonalite thechord nil) thechord) (let ((thechord (make-instance (quote chord) :lmidic (quote (6000)) :ldur (quote (750)) :lvel (quote (80)) :loffset (quote (0)) :lchan (quote (1))))) (load-port-info thechord (quote (nil))) (init-mus-color thechord (quote nil)) (set-extra-pairs thechord (quote nil)) (set-tonalite thechord nil) thechord) (let ((thechord (make-instance (quote chord) :lmidic (quote (6200)) :ldur (quote (500)) :lvel (quote (80)) :loffset (quote (0)) :lchan (quote (1))))) (load-port-info thechord (quote (nil))) (init-mus-color thechord (quote nil)) (set-extra-pairs thechord (quote nil)) (set-tonalite thechord nil) thechord) (let ((thechord (make-instance (quote chord) :lmidic (quote (5800)) :ldur (quote (500)) :lvel (quote (80)) :loffset (quote (0)) :lchan (quote (1))))) (load-port-info thechord (quote (nil))) (init-mus-color thechord (quote nil)) (set-extra-pairs thechord (quote nil)) (set-tonalite thechord nil) thechord) (let ((thechord (make-instance (quote chord) :lmidic (quote (6300)) :ldur (quote (250)) :lvel (quote (80)) :loffset (quote (0)) :lchan (quote (1))))) (load-port-info thechord (quote (nil))) (init-mus-color thechord (quote nil)) (set-extra-pairs thechord (quote nil)) (set-tonalite thechord nil) thechord) (let ((thechord (make-instance (quote chord) :lmidic (quote (5400)) :ldur (quote (250)) :lvel (quote (80)) :loffset (quote (0)) :lchan (quote (1))))) (load-port-info thechord (quote (nil))) (init-mus-color thechord (quote nil)) (set-extra-pairs thechord (quote nil)) (set-tonalite thechord nil) thechord) (let ((thechord (make-instance (quote chord) :lmidic (quote (4800)) :ldur (quote (500)) :lvel (quote (80)) :loffset (quote (0)) :lchan (quote (1))))) (load-port-info thechord (quote (nil))) (init-mus-color thechord (quote nil)) (set-extra-pairs thechord (quote nil)) (set-tonalite thechord nil) thechord) (let ((thechord (make-instance (quote chord) :lmidic (quote (5000)) :ldur (quote (250)) :lvel (quote (80)) :loffset (quote (0)) :lchan (quote (1))))) (load-port-info thechord (quote (nil))) (init-mus-color thechord (quote nil)) (set-extra-pairs thechord (quote nil)) (set-tonalite thechord nil) thechord) (let ((thechord (make-instance (quote chord) :lmidic (quote (5200)) :ldur (quote (250)) :lvel (quote (80)) :loffset (quote (0)) :lchan (quote (1))))) (load-port-info thechord (quote (nil))) (init-mus-color thechord (quote nil)) (set-extra-pairs thechord (quote nil)) (set-tonalite thechord nil) thechord) (let ((thechord (make-instance (quote chord) :lmidic (quote (4500)) :ldur (quote (250)) :lvel (quote (80)) :loffset (quote (0)) :lchan (quote (1))))) (load-port-info thechord (quote (nil))) (init-mus-color thechord (quote nil)) (set-extra-pairs thechord (quote nil)) (set-tonalite thechord nil) thechord) (let ((thechord (make-instance (quote chord) :lmidic (quote (5500)) :ldur (quote (2000)) :lvel (quote (80)) :loffset (quote (0)) :lchan (quote (1))))) (load-port-info thechord (quote (nil))) (init-mus-color thechord (quote nil)) (set-extra-pairs thechord (quote nil)) (set-tonalite thechord nil) thechord) (let ((thechord (make-instance (quote chord) :lmidic (quote (4600)) :ldur (quote (250)) :lvel (quote (80)) :loffset (quote (0)) :lchan (quote (1))))) (load-port-info thechord (quote (nil))) (init-mus-color thechord (quote nil)) (set-extra-pairs thechord (quote nil)) (set-tonalite thechord nil) thechord) (let ((thechord (make-instance (quote chord) :lmidic (quote (4700)) :ldur (quote (250)) :lvel (quote (80)) :loffset (quote (0)) :lchan (quote (1))))) (load-port-info thechord (quote (nil))) (init-mus-color thechord (quote nil)) (set-extra-pairs thechord (quote nil)) (set-tonalite thechord nil) thechord) (let ((thechord (make-instance (quote chord) :lmidic (quote (4400)) :ldur (quote (1000)) :lvel (quote (80)) :loffset (quote (0)) :lchan (quote (1))))) (load-port-info thechord (quote (nil))) (init-mus-color thechord (quote nil)) (set-extra-pairs thechord (quote nil)) (set-tonalite thechord nil) thechord) (let ((thechord (make-instance (quote chord) :lmidic (quote (5100)) :ldur (quote (250)) :lvel (quote (80)) :loffset (quote (0)) :lchan (quote (1))))) (load-port-info thechord (quote (nil))) (init-mus-color thechord (quote nil)) (set-extra-pairs thechord (quote nil)) (set-tonalite thechord nil) thechord) (let ((thechord (make-instance (quote chord) :lmidic (quote (5300)) :ldur (quote (1000)) :lvel (quote (80)) :loffset (quote (0)) :lchan (quote (1))))) (load-port-info thechord (quote (nil))) (init-mus-color thechord (quote nil)) (set-extra-pairs thechord (quote nil)) (set-tonalite thechord nil) thechord)))) :tempo (quote ((1/4 60) nil)) :legato 100 :ties (quote (nil nil nil nil nil nil nil nil nil nil nil nil nil nil nil nil nil nil nil nil nil nil nil nil nil nil nil nil nil nil nil nil nil nil nil)))))) (load-port-info newobj (quote nil)) (init-mus-color newobj (quote nil)) (set-extra-pairs newobj (quote nil)) (set-patch-pairs newobj (quote nil)) (set-name newobj nil) (set-tonalite newobj nil) newobj)))) (setf (end-t sheet-obj) 79000) (setf (obj-size sheet-obj) 20) (setf (obj-margin sheet-obj) 1) (setf (obj-staff sheet-obj) (quote g)) sheet-obj)) :from-file t))) (load-port-info newobj (quote ((nil)))) (init-mus-color newobj (quote nil)) (set-extra-pairs newobj (quote nil)) (set-patch-pairs newobj (quote nil)) (set-name newobj nil) (set-tonalite newobj nil) newobj)))) (setf (track-size sheet-track) 80) (setf (track-pos sheet-track) 1) sheet-track)) :patch-list (list (om-load-sheet-patch "sheet patch" (quote ((om-load-editor-box1 "sheet access" (quote sheet-access) (quote ((om-load-inputfun (quote input-funbox) "object" "self" nil) (om-load-inputfun (quote input-funbox) "ID of the object to read/modify" "object-id" nil) (om-load-inputfun (quote input-funbox) "sheet-track-obj accessed by ID" "object-access" nil) (om-load-inputfun (quote input-funbox) "contents of the object accessed by ID" "object-content" nil) (om-load-inputfun (quote input-funbox) "offset of the object accessed by ID (ms)" "object-onset" nil))) (om-make-point 150 50) nil (if (find-class (quote sheet-access) nil) (make-instance (quote sheet-access) :object-id nil :object-access nil :object-content nil :object-onset nil :from-file t)) nil nil (pairlis (quote (winpos winsize)) (list (om-make-point 10 40) (om-make-point 335 275))) t nil nil nil))) (quote nil) 6.080004 nil "")) :from-file t))) (load-port-info newobj (quote (((nil)) ((nil))))) (init-mus-color newobj (quote nil)) (set-extra-pairs newobj (quote nil)) (set-patch-pairs newobj (quote nil)) (set-name newobj nil) (set-tonalite newobj nil) newobj)) nil nil (pairlis (quote (show-tracks show-time grille grille-step patch-open approx fontsize staff cmnpref deltapict outport inport player zoom notechancolor? grillestep mode winsize winpos score-mode obj-mode cursor-mode show-stems scale)) (list (quote t) (quote t) nil 1000 nil 2 24 (quote g) (let ((newobj (make-instance (quote edition-values)))) (setf (paper-size newobj) (om-make-point 600 800)) (setf (top-margin newobj) 2) (setf (left-margin newobj) 1) (setf (right-margin newobj) 1) (setf (bottom-margin newobj) 1) (setf (orientation newobj) nil) (setf (scale newobj) nil) (setf (system-space newobj) (quote (1))) (setf (system-color newobj) (quote nil)) (setf (line-space newobj) 1) (setf (title newobj) nil) (setf (show-title? newobj) nil) (setf (show-page? newobj) nil) (setf (sheet-id newobj) nil) (setf (page-mode newobj) nil) newobj) (om-make-point 0 0) nil nil (quote :midishare) 1 nil 1000 0 (om-make-point 964 300) (om-make-point 0 0) 0 1 (quote :normal) (quote t) nil)) nil nil nil nil) (om-load-boxcall (quote genfun) "OM*" (quote om*) (quote ((om-load-inputfun (quote input-funbox) "number or list" "ARG1" 0) (om-load-inputfun (quote input-funbox) "number or list" "ARG2" 0))) (om-make-point 615 441) nil nil nil nil 1) (om-load-boxcall (quote bastype) "list 2" (quote list) (quote nil) (om-make-point 655 410) (om-make-point 39 28) 100 "100" nil) (om-load-boxcall (quote genfun) "OM+" (quote om+) (quote ((om-load-inputfun (quote input-funbox) "number or list" "ARG1" 0) (om-load-inputfun (quote input-funbox) "number or list" "ARG2" 0))) (om-make-point 594 373) nil nil nil nil 1) (om-load-boxcall (quote bastype) "list" (quote list) (quote nil) (om-make-point 638 343) (om-make-point 33 28) 59 "59" nil) (om-load-boxcall (quote lispfun) "FIRST" (quote first) (quote ((om-load-inputfun (quote input-funbox) "LIST" "LIST" nil))) (om-make-point 424 153) nil nil nil nil 1) (om-load-boxcall (quote lispfun) "SECOND" (quote second) (quote ((om-load-inputfun (quote input-funbox) "LIST" "LIST" nil))) (om-make-point 486 151) nil nil nil nil 1) (om-load-boxcall (quote lispfun) "REST 2" (quote rest) (quote ((om-load-inputfun (quote input-funbox) "LIST" "LIST" nil))) (om-make-point 606 142) nil nil nil nil 1) (om-load-boxcall (quote lispfun) "REST" (quote rest) (quote ((om-load-inputfun (quote input-funbox) "LIST" "LIST" nil))) (om-make-point 680 171) nil nil nil nil 1) (om-load-boxcomment "comment 2" (om-make-point 100 60) (quote "Separo la serie base") "" (om-make-point 722 142) nil (om-make-color 0 0 0) (om-make-font "Verdana" 12 :family "Verdana" :style (quote (:plain)) :mode (quote nil))) (om-load-boxcomment "comment" (om-make-point 116 73) (quote "Obtengo la serie traspuesta, inversa e inversamente traspuesta") "" (om-make-point 247 404) nil (om-make-color 0 0 0) (om-make-font "Verdana" 12 :family "Verdana" :style (quote (:plain)) :mode (quote nil))) (om-load-boxcomment "comment" (om-make-point 100 60) (quote "Convierto la string en una lista") "" (om-make-point 244 118) nil (om-make-color 0 0 0) (om-make-font "Verdana" 12 :family "Verdana" :style (quote (:plain)) :mode (quote nil))) (om-load-boxcomment "comment" (om-make-point 100 60) (quote "Aquí se carga la lista de parámetros de la interfaz") "" (om-make-point 242 16) nil (om-make-color 0 0 0) (om-make-font "Verdana" 12 :family "Verdana" :style (quote (:plain)) :mode (quote nil))) (om-load-editor-box1 "CHORD-SEQ 4" (quote chord-seq) (quote ((om-load-inputfun (quote input-funbox) "object" "self" nil) (om-load-inputfun (quote input-funbox) "pitches (mc): list or list of lists" "lmidic" (list 6000)) (om-load-inputfun (quote input-funbox) "onsets (ms): list" "lonset" (list 0 1000)) (om-load-inputfun (quote input-funbox) "durations (ms): list or list of lists" "ldur" (list 1000)) (om-load-inputfun (quote input-funbox) "velocities (0-127): list or list of lists" "lvel" (list 100)) (om-load-inputfun (quote input-funbox) "offsets (ms): list or list of lists" "loffset" (list 0)) (om-load-inputfun (quote input-funbox) "MIDI channels (1-16): list or list of lists" "lchan" (list 1)) (om-load-inputfun (quote input-funbox) "relative chords duration (0-100)" "legato" 0))) (om-make-point 275 560) (om-make-point 130 70) (let ((newobj (when (find-class (quote chord-seq) nil) (make-instance (quote chord-seq) :lmidic (quote ((6500) (7000) (6400) (7100) (6600) (6700) (6100) (6800) (6000) (6900) (6200) (6300))) :lonset (quote (0 1000 2000 3000 4000 5000 6000 7000 8000 9000 10000 11000 12000)) :ldur (quote ((1000) (1000) (1000) (1000) (1000) (1000) (1000) (1000) (1000) (1000) (1000) (1000))) :lvel (quote ((100) (100) (100) (100) (100) (100) (100) (100) (100) (100) (100) (100))) :loffset (quote ((0) (0) (0) (0) (0) (0) (0) (0) (0) (0) (0) (0))) :lchan (quote ((1) (1) (1) (1) (1) (1) (1) (1) (1) (1) (1) (1))) :legato 0)))) (load-port-info newobj (quote ((0) (0) (0) (0) (0) (0) (0) (0) (0) (0) (0) (0)))) (init-mus-color newobj (quote nil)) (set-extra-pairs newobj (quote nil)) (set-patch-pairs newobj (quote ((nil (om-load-patch-abs1 "patch" (quote nil) (quote nil) 6.080004 nil "" (om-make-point 200 200) (om-make-point 400 500)))))) (set-name newobj nil) (set-tonalite newobj nil) newobj) nil nil (pairlis (quote (approx fontsize staff cmnpref deltapict outport inport player zoom notechancolor? grillestep mode winsize winpos score-mode obj-mode cursor-mode show-stems scale)) (list 2 24 (quote g) (let ((newobj (make-instance (quote edition-values)))) (setf (paper-size newobj) (om-make-point 600 800)) (setf (top-margin newobj) 2) (setf (left-margin newobj) 1) (setf (right-margin newobj) 1) (setf (bottom-margin newobj) 1) (setf (orientation newobj) nil) (setf (scale newobj) nil) (setf (system-space newobj) (quote (1))) (setf (system-color newobj) (quote nil)) (setf (line-space newobj) 1) (setf (title newobj) nil) (setf (show-title? newobj) nil) (setf (show-page? newobj) nil) (setf (sheet-id newobj) nil) (setf (page-mode newobj) nil) newobj) (om-make-point 0 0) nil 0 (quote :midishare) 1 nil 1000 0 (om-make-point 1278 656) (om-make-point -4 -4) 0 1 (quote :normal) (quote t) nil)) t nil nil nil) (om-load-editor-box1 "CHORD-SEQ 3" (quote chord-seq) (quote ((om-load-inputfun (quote input-funbox) "object" "self" nil) (om-load-inputfun (quote input-funbox) "pitches (mc): list or list of lists" "lmidic" (list 6000)) (om-load-inputfun (quote input-funbox) "onsets (ms): list" "lonset" (list 0 1000)) (om-load-inputfun (quote input-funbox) "durations (ms): list or list of lists" "ldur" (list 1000)) (om-load-inputfun (quote input-funbox) "velocities (0-127): list or list of lists" "lvel" (list 100)) (om-load-inputfun (quote input-funbox) "offsets (ms): list or list of lists" "loffset" (list 0)) (om-load-inputfun (quote input-funbox) "MIDI channels (1-16): list or list of lists" "lchan" (list 1)) (om-load-inputfun (quote input-funbox) "relative chords duration (0-100)" "legato" 0))) (om-make-point 441 559) (om-make-point 130 70) (let ((newobj (when (find-class (quote chord-seq) nil) (make-instance (quote chord-seq) :lmidic (quote ((6300) (6400) (5700) (6600) (5800) (6500) (5900) (6000) (5500) (6200) (5600) (6100))) :lonset (quote (0 1000 2000 3000 4000 5000 6000 7000 8000 9000 10000 11000 12000)) :ldur (quote ((1000) (1000) (1000) (1000) (1000) (1000) (1000) (1000) (1000) (1000) (1000) (1000))) :lvel (quote ((100) (100) (100) (100) (100) (100) (100) (100) (100) (100) (100) (100))) :loffset (quote ((0) (0) (0) (0) (0) (0) (0) (0) (0) (0) (0) (0))) :lchan (quote ((1) (1) (1) (1) (1) (1) (1) (1) (1) (1) (1) (1))) :legato 0)))) (load-port-info newobj (quote ((0) (0) (0) (0) (0) (0) (0) (0) (0) (0) (0) (0)))) (init-mus-color newobj (quote nil)) (set-extra-pairs newobj (quote nil)) (set-patch-pairs newobj (quote ((nil (om-load-patch-abs1 "patch" (quote nil) (quote nil) 6.080004 nil "" (om-make-point 200 200) (om-make-point 400 500)))))) (set-name newobj nil) (set-tonalite newobj nil) newobj) nil nil (pairlis (quote (approx fontsize staff cmnpref deltapict outport inport player zoom notechancolor? grillestep mode winsize winpos score-mode obj-mode cursor-mode show-stems scale)) (list 2 24 (quote g) (let ((newobj (make-instance (quote edition-values)))) (setf (paper-size newobj) (om-make-point 600 800)) (setf (top-margin newobj) 2) (setf (left-margin newobj) 1) (setf (right-margin newobj) 1) (setf (bottom-margin newobj) 1) (setf (orientation newobj) nil) (setf (scale newobj) nil) (setf (system-space newobj) (quote (1))) (setf (system-color newobj) (quote nil)) (setf (line-space newobj) 1) (setf (title newobj) nil) (setf (show-title? newobj) nil) (setf (show-page? newobj) nil) (setf (sheet-id newobj) nil) (setf (page-mode newobj) nil) newobj) (om-make-point 0 0) nil 0 (quote :midishare) 1 nil 1000 0 (om-make-point 1278 656) (om-make-point -4 -4) 0 1 (quote :normal) (quote t) nil)) t nil nil nil) (om-load-editor-box1 "CHORD-SEQ 2" (quote chord-seq) (quote ((om-load-inputfun (quote input-funbox) "object" "self" nil) (om-load-inputfun (quote input-funbox) "pitches (mc): list or list of lists" "lmidic" (list 6000)) (om-load-inputfun (quote input-funbox) "onsets (ms): list" "lonset" (list 0 1000)) (om-load-inputfun (quote input-funbox) "durations (ms): list or list of lists" "ldur" (list 1000)) (om-load-inputfun (quote input-funbox) "velocities (0-127): list or list of lists" "lvel" (list 100)) (om-load-inputfun (quote input-funbox) "offsets (ms): list or list of lists" "loffset" (list 0)) (om-load-inputfun (quote input-funbox) "MIDI channels (1-16): list or list of lists" "lchan" (list 1)) (om-load-inputfun (quote input-funbox) "relative chords duration (0-100)" "legato" 0))) (om-make-point 612 563) (om-make-point 130 70) (let ((newobj (when (find-class (quote chord-seq) nil) (make-instance (quote chord-seq) :lmidic (quote ((6100) (5600) (6200) (5500) (6000) (5900) (6500) (5800) (6600) (5700) (6400) (6300))) :lonset (quote (0 1000 2000 3000 4000 5000 6000 7000 8000 9000 10000 11000 12000)) :ldur (quote ((1000) (1000) (1000) (1000) (1000) (1000) (1000) (1000) (1000) (1000) (1000) (1000))) :lvel (quote ((100) (100) (100) (100) (100) (100) (100) (100) (100) (100) (100) (100))) :loffset (quote ((0) (0) (0) (0) (0) (0) (0) (0) (0) (0) (0) (0))) :lchan (quote ((1) (1) (1) (1) (1) (1) (1) (1) (1) (1) (1) (1))) :legato 0)))) (load-port-info newobj (quote ((0) (0) (0) (0) (0) (0) (0) (0) (0) (0) (0) (0)))) (init-mus-color newobj (quote nil)) (set-extra-pairs newobj (quote nil)) (set-patch-pairs newobj (quote ((nil (om-load-patch-abs1 "patch" (quote nil) (quote nil) 6.080004 nil "" (om-make-point 200 200) (om-make-point 400 500)))))) (set-name newobj nil) (set-tonalite newobj nil) newobj) nil nil (pairlis (quote (approx fontsize staff cmnpref deltapict outport inport player zoom notechancolor? grillestep mode winsize winpos score-mode obj-mode cursor-mode show-stems scale)) (list 2 24 (quote g) (let ((newobj (make-instance (quote edition-values)))) (setf (paper-size newobj) (om-make-point 600 800)) (setf (top-margin newobj) 2) (setf (left-margin newobj) 1) (setf (right-margin newobj) 1) (setf (bottom-margin newobj) 1) (setf (orientation newobj) nil) (setf (scale newobj) nil) (setf (system-space newobj) (quote (1))) (setf (system-color newobj) (quote nil)) (setf (line-space newobj) 1) (setf (title newobj) nil) (setf (show-title? newobj) nil) (setf (show-page? newobj) nil) (setf (sheet-id newobj) nil) (setf (page-mode newobj) nil) newobj) (om-make-point 0 0) nil 0 (quote :midishare) 1 nil 1000 0 (om-make-point 1278 656) (om-make-point -4 -4) 0 1 (quote :normal) (quote t) nil)) t nil nil nil) (om-load-editor-box1 "CHORD-SEQ" (quote chord-seq) (quote ((om-load-inputfun (quote input-funbox) "object" "self" nil) (om-load-inputfun (quote input-funbox) "pitches (mc): list or list of lists" "lmidic" (list 6000)) (om-load-inputfun (quote input-funbox) "onsets (ms): list" "lonset" (list 0 1000)) (om-load-inputfun (quote input-funbox) "durations (ms): list or list of lists" "ldur" (list 1000)) (om-load-inputfun (quote input-funbox) "velocities (0-127): list or list of lists" "lvel" (list 100)) (om-load-inputfun (quote input-funbox) "offsets (ms): list or list of lists" "loffset" (list 0)) (om-load-inputfun (quote input-funbox) "MIDI channels (1-16): list or list of lists" "lchan" (list 1)) (om-load-inputfun (quote input-funbox) "relative chords duration (0-100)" "legato" 0))) (om-make-point 88 559) (om-make-point 130 70) (let ((newobj (when (find-class (quote chord-seq) nil) (make-instance (quote chord-seq) :lmidic (quote ((6300) (6200) (6900) (6000) (6800) (6100) (6700) (6600) (7100) (6400) (7000) (6500))) :lonset (quote (0 1000 2000 3000 4000 5000 6000 7000 8000 9000 10000 11000 12000)) :ldur (quote ((1000) (1000) (1000) (1000) (1000) (1000) (1000) (1000) (1000) (1000) (1000) (1000))) :lvel (quote ((100) (100) (100) (100) (100) (100) (100) (100) (100) (100) (100) (100))) :loffset (quote ((0) (0) (0) (0) (0) (0) (0) (0) (0) (0) (0) (0))) :lchan (quote ((1) (1) (1) (1) (1) (1) (1) (1) (1) (1) (1) (1))) :legato 0)))) (load-port-info newobj (quote ((0) (0) (0) (0) (0) (0) (0) (0) (0) (0) (0) (0)))) (init-mus-color newobj (quote nil)) (set-extra-pairs newobj (quote nil)) (set-patch-pairs newobj (quote ((nil (om-load-patch-abs1 "patch" (quote nil) (quote nil) 6.080004 nil "" (om-make-point 200 200) (om-make-point 400 500)))))) (set-name newobj nil) (set-tonalite newobj nil) newobj) nil nil (pairlis (quote (approx fontsize staff cmnpref deltapict outport inport player zoom notechancolor? grillestep mode winsize winpos score-mode obj-mode cursor-mode show-stems scale)) (list 2 24 (quote g) (let ((newobj (make-instance (quote edition-values)))) (setf (paper-size newobj) (om-make-point 600 800)) (setf (top-margin newobj) 2) (setf (left-margin newobj) 1) (setf (right-margin newobj) 1) (setf (bottom-margin newobj) 1) (setf (orientation newobj) nil) (setf (scale newobj) nil) (setf (system-space newobj) (quote (1))) (setf (system-color newobj) (quote nil)) (setf (line-space newobj) 1) (setf (title newobj) nil) (setf (show-title? newobj) nil) (setf (show-page? newobj) nil) (setf (sheet-id newobj) nil) (setf (page-mode newobj) nil) newobj) (om-make-point 0 0) nil 0 (quote :midishare) 1 nil 1000 0 (om-make-point 1278 656) (om-make-point -4 -4) 0 1 (quote :normal) (quote t) nil)) t nil nil nil) (om-load-boxcall (quote patch-box) "LispFunction" (quote ("elements" "TFG" "LispFunction")) (quote ((om-load-inputfun (quote input-funbox) "" "STRING" nil))) (om-make-point 175 116) nil (list (list 1 7 0 0 0 0 0 0 0 0 0 0 0 0) 29) nil nil 1) (om-load-boxwithed1 (quote box-with-win) "FILE-BOX" (quote file-box) (quote nil) (om-make-point 189 13) nil nil nil (list (om-load-boxcall (quote bastype) "list" (quote list) (quote nil) (om-make-point 218 39) (om-make-point 104 28) "parameters.txt" "\"parameters.txt\"" nil) (om-load-boxcall (quote genfun) "FILE-READ-LINE" (quote file-read-line) (quote ((om-load-inputfun (quote input-funbox) "a file pointer" "STREAM" nil))) (om-make-point 280 239) nil nil nil nil 1) (let ((box (om-load-boxcall (quote genfun) "StreamFile" (quote streamfile) (quote ((om-load-inputfun (quote input-funbox) "pathname or string" "PATHNAME" nil))) (om-make-point 263 154) nil nil nil nil 1))) (setf (filetype box) (quote text) (direction box) :input (if-ex box) :rename) box) (om-load-boxcall (quote genfun) "INFILE" (quote infile) (quote ((om-load-inputfun (quote input-funbox) "file name" "NAME" "parameters.txt"))) (om-make-point 275 66) nil nil nil nil 1) (om-load-seqbox "init" (quote initdo) (quote ((om-load-inputfun (quote input-funbox) "operations to do" "OP" nil))) (om-make-point 109 337) nil nil nil 0) (om-load-seqbox "finally" (quote finaldo) (quote ((om-load-inputfun (quote input-funbox) "value to return" "VAL" nil))) (om-make-point 299 337) nil nil nil 0) (om-load-seqbox "eachTime" (quote loopdo) (quote ((om-load-inputfun (quote input-funbox) "operations to do" "OP" nil))) (om-make-point 199 337) nil nil nil 0)) (quote ((2 0 1 0 nil 0) (3 0 2 0 nil 0) (0 0 3 0 nil 0) (1 0 5 0 nil 0))) 1 "file-box" nil) (om-load-boxcall (quote patch-box) "12RMatGen" (quote ("elements" "TFG" "12RMatGen")) (quote ((om-load-inputfun (quote input-funbox) "" "input" nil))) (om-make-point 183 389) nil (list (list 6700 7000 6900 6000 6100 7100 6800 6600 6200 6300 6500 6400) (list 6400 6500 6300 6200 6600 6800 7100 6100 6000 6900 7000 6700) (list 6700 6400 6500 7400 7300 6300 6600 6800 7200 7100 6900 7000) (list 7000 6900 7100 7200 6800 6600 6300 7300 7400 6500 6400 6700)) nil nil 4))) (quote ((16 0 0 0 nil 0) (13 0 0 1 nil 0) (14 0 0 2 nil 0) (8 1 1 0 nil 0) (6 0 1 1 nil 0) (7 0 6 0 nil 0) (27 0 7 0 nil 0) (27 1 7 1 nil 0) (27 2 7 2 nil 0) (27 3 7 3 nil 0) (7 0 8 1 nil 0) (11 0 9 0 nil 0) (10 0 9 1 nil 0) (0 0 11 0 nil 0) (12 0 11 1 nil 0) (25 0 13 0 nil 0) (25 0 14 0 nil 0) (25 0 15 0 nil 0) (15 0 16 0 nil 0) (27 1 21 1 nil 0) (27 2 22 1 nil 0) (27 3 23 1 nil 0) (27 0 24 1 nil 0) (26 0 25 0 nil 0) (9 0 27 0 nil 0))) nil 6.080004))
