; OM File Header - Saved 2014/03/19 19:12:41
; (6.070009 :patc (om-make-point 118 310) (om-make-point 544 181) (om-make-point 524 386) "" 183 0 "2014/03/10 11:29:51" "2014/03/19 19:12:41")
; End File Header
; External resources 
; (list (list (quote :abstraction) "#P\"C:LispFunction.oml\""))
(in-package :om)(load-lib-for (quote nil))(setf *om-current-persistent* (om-load-patch1 "SerieGenerator" (quote ((om-load-boxcomment "comment" (om-make-point 100 60) (quote "Bucle principal de generación de la serie") "" (om-make-point 252 240) nil (om-make-color 0 0 0) (om-make-font "Verdana" 12 :family "Verdana" :style (quote (:plain)) :mode (quote nil))) (om-load-boxcomment "comment" (om-make-point 100 60) (quote "Separo la serie base") "" (om-make-point 308 111) nil (om-make-color 0 0 0) (om-make-font "Verdana" 12 :family "Verdana" :style (quote (:plain)) :mode (quote nil))) (om-load-boxcomment "comment" (om-make-point 100 60) (quote "Separo los parámetros: min intervalo y max intervalo") "" (om-make-point 0 271) nil (om-make-color 0 0 0) (om-make-font "Verdana" 12 :family "Verdana" :style (quote (:plain)) :mode (quote nil))) (om-load-boxwithed1 (quote box-with-win) "OMLOOP" (quote omloop) (quote ((om-load-inputfun (quote input-funbox) "" "input" nil) (om-load-inputfun (quote input-funbox) "" "input 2" nil) (om-load-inputfun (quote input-funbox) "" "input 3" nil))) (om-make-point 218 229) nil nil nil (list (om-load-boxwithed1 (quote box-with-win) "file-box" (quote file-box) (quote nil) (om-make-point 25 427) nil nil nil (list (om-load-boxcall (quote bastype) "list 2" (quote list) (quote nil) (om-make-point 193 168) (om-make-point 45 28) "(0)" "\"(0)\"" nil) (om-load-boxcall (quote genfun) "OUTFILE" (quote outfile) (quote ((om-load-inputfun (quote input-funbox) "file name" "NAME" ""))) (om-make-point 275 74) nil nil nil nil 1) (om-load-boxcall (quote genfun) "FILE-WRITE-LINE" (quote file-write-line) (quote ((om-load-inputfun (quote input-funbox) "a line to write" "LINE" nil) (om-load-inputfun (quote input-funbox) "a file pointer" "STREAM" nil))) (om-make-point 281 248) nil nil nil nil 1) (om-load-boxcall (quote bastype) "list" (quote list) (quote nil) (om-make-point 219 38) (om-make-point 71 28) "serie.txt" "\"serie.txt\"" nil) (let ((box (om-load-boxcall (quote genfun) "StreamFile" (quote streamfile) (quote ((om-load-inputfun (quote input-funbox) "pathname or string" "PATHNAME" nil))) (om-make-point 365 139) nil nil nil nil 1))) (setf (filetype box) (quote text) (direction box) :io (if-ex box) :rename) box) (om-load-seqbox "init" (quote initdo) (quote ((om-load-inputfun (quote input-funbox) "operations to do" "OP" nil))) (om-make-point 109 337) nil nil nil 0) (om-load-seqbox "finally" (quote finaldo) (quote ((om-load-inputfun (quote input-funbox) "value to return" "VAL" nil))) (om-make-point 299 337) nil nil nil 0) (om-load-seqbox "eachTime" (quote loopdo) (quote ((om-load-inputfun (quote input-funbox) "operations to do" "OP" nil))) (om-make-point 199 337) nil nil nil 0)) (quote ((3 0 1 0 nil 0) (0 0 2 0 nil 0) (4 0 2 1 nil 0) (1 0 4 0 nil 0) (2 0 6 0 nil 0))) 1 "file-box" nil) (om-load-seqbox "INITDO" (quote initdo) (quote ((om-load-inputfun (quote input-funbox) "operations to do" "OP" nil))) (om-make-point 43 562) nil nil nil 0) (om-load-boxcall (quote abstraction) "lispfunction" (om-load-lisp-abspatch "lispfunction" 6.070009 ";;; Edit a valid LAMBDA EXPRESSION for \"lispfunction\"$;;; e.g. (lambda (arg1 arg2 ...) ( ... ))$$(lambda (arg1) (write-to-string arg1))") (quote ((om-load-inputfun (quote input-funbox) "" "ARG1" (list 1 2 3 5)))) (om-make-point 338 430) nil (list "(1 2 3 5)") nil nil) (om-load-boxwithed1 (quote box-with-win) "FILE-BOX 2" (quote file-box) (quote ((om-load-inputfun (quote input-funbox) "" "input" (list 0 1 2 3)))) (om-make-point 434 503) nil nil nil (list (om-load-boxcall (quote genfun) "OUTFILE" (quote outfile) (quote ((om-load-inputfun (quote input-funbox) "file name" "NAME" ""))) (om-make-point 275 74) nil nil nil nil 1) (om-load-boxcall (quote genfun) "FILE-WRITE-LINE" (quote file-write-line) (quote ((om-load-inputfun (quote input-funbox) "a line to write" "LINE" nil) (om-load-inputfun (quote input-funbox) "a file pointer" "STREAM" nil))) (om-make-point 281 248) nil nil nil nil 1) (om-load-boxin "input" 0 (om-make-point 36 54) "" nil nil nil) (om-load-boxcall (quote bastype) "list" (quote list) (quote nil) (om-make-point 219 38) (om-make-point 71 28) "serie.txt" "\"serie.txt\"" nil) (let ((box (om-load-boxcall (quote genfun) "StreamFile" (quote streamfile) (quote ((om-load-inputfun (quote input-funbox) "pathname or string" "PATHNAME" nil))) (om-make-point 365 139) nil nil nil nil 1))) (setf (filetype box) (quote text) (direction box) :io (if-ex box) :rename) box) (om-load-seqbox "init" (quote initdo) (quote ((om-load-inputfun (quote input-funbox) "operations to do" "OP" nil))) (om-make-point 109 337) nil nil nil 0) (om-load-seqbox "finally" (quote finaldo) (quote ((om-load-inputfun (quote input-funbox) "value to return" "VAL" nil))) (om-make-point 299 337) nil nil nil 0) (om-load-seqbox "eachTime" (quote loopdo) (quote ((om-load-inputfun (quote input-funbox) "operations to do" "OP" nil))) (om-make-point 199 337) nil nil nil 0)) (quote ((3 0 0 0 nil 0) (2 0 1 0 nil 0) (4 0 1 1 nil 0) (0 0 4 0 nil 0) (1 0 6 0 nil 0))) 1 "file-box" nil) (om-load-boxcall (quote bastype) "list" (quote list) (quote nil) (om-make-point 182 249) (om-make-point 26 28) 0 "0" nil) (om-load-boxwithed1 (quote box-with-win) "omloop" (quote omloop) (quote ((om-load-inputfun (quote input-funbox) "" "input0" nil))) (om-make-point 405 127) (om-make-point 44.424805 58) nil nil (list (om-load-boxcall (quote genfun) "OM-" (quote om-) (quote ((om-load-inputfun (quote input-funbox) "number or list" "ARG1" 0) (om-load-inputfun (quote input-funbox) "number or list" "ARG2" 59))) (om-make-point 482 184) nil nil nil nil 1) (om-load-boxcall (quote genfun) "OM/" (quote om/) (quote ((om-load-inputfun (quote input-funbox) "number or list" "ARG1" 1) (om-load-inputfun (quote input-funbox) "number or list" "ARG2" 100))) (om-make-point 534 156) nil nil nil nil 1) (om-load-boxcall (quote lispfun) "REMOVE 2" (quote remove) (quote ((om-load-inputfun (quote input-funbox) "ITEM" "ITEM" nil) (om-load-inputfun (quote input-funbox) "SEQUENCE" "SEQUENCE" nil))) (om-make-point 191 204) nil nil nil nil 1) (om-load-boxcall (quote lispfun) "LENGTH 4" (quote length) (quote ((om-load-inputfun (quote input-funbox) "SEQUENCE" "SEQUENCE" nil))) (om-make-point 173 267) nil nil nil nil 1) (om-load-boxcall (quote genfun) "OM< 2" (quote om<) (quote ((om-load-inputfun (quote input-funbox) "a number" "NUM1" 0) (om-load-inputfun (quote input-funbox) "a number" "NUM2" 1))) (om-make-point 201 319) (om-make-point 20 35) nil nil nil 1) (om-load-boxcall (quote lispfun) "LENGTH 3" (quote length) (quote ((om-load-inputfun (quote input-funbox) "SEQUENCE" "SEQUENCE" nil))) (om-make-point 213 272) nil nil nil nil 1) (om-load-boxcall (quote genfun) "OMOR" (quote omor) (quote ((om-load-inputfun (quote input-funbox) "something" "SELF" nil) (om-load-inputfun (quote input-funbox) "other things" "REST" nil))) (om-make-point 148 402) nil nil nil nil 1) (om-load-boxcall (quote lispfun) "LENGTH 2" (quote length) (quote ((om-load-inputfun (quote input-funbox) "SEQUENCE" "SEQUENCE" nil))) (om-make-point 120 212) nil nil nil nil 1) (om-load-boxcall (quote patch-box) "LispFunction" (quote ("elements" "TFG" "LispFunction")) (quote ((om-load-inputfun (quote input-funbox) "" "STRING" nil))) (om-make-point 427 101) nil (list (list 6000) 6) nil nil 1) (om-load-boxwithed1 (quote box-with-win) "FILE-BOX" (quote file-box) (quote nil) (om-make-point 471 16) nil nil nil (list (om-load-boxcall (quote genfun) "OUTFILE" (quote outfile) (quote ((om-load-inputfun (quote input-funbox) "file name" "NAME" ""))) (om-make-point 276 83) nil nil nil nil 1) (om-load-boxcall (quote bastype) "list" (quote list) (quote nil) (om-make-point 218 40) (om-make-point 71 28) "serie.txt" "\"serie.txt\"" nil) (om-load-boxcall (quote genfun) "FILE-READ-LINE" (quote file-read-line) (quote ((om-load-inputfun (quote input-funbox) "a file pointer" "STREAM" nil))) (om-make-point 280 239) nil nil nil nil 1) (let ((box (om-load-boxcall (quote genfun) "StreamFile" (quote streamfile) (quote ((om-load-inputfun (quote input-funbox) "pathname or string" "PATHNAME" nil))) (om-make-point 263 154) nil nil nil nil 1))) (setf (filetype box) (quote text) (direction box) :input (if-ex box) :rename) box) (om-load-seqbox "init" (quote initdo) (quote ((om-load-inputfun (quote input-funbox) "operations to do" "OP" nil))) (om-make-point 109 337) nil nil nil 0) (om-load-seqbox "finally" (quote finaldo) (quote ((om-load-inputfun (quote input-funbox) "value to return" "VAL" nil))) (om-make-point 299 337) nil nil nil 0) (om-load-seqbox "eachTime" (quote loopdo) (quote ((om-load-inputfun (quote input-funbox) "operations to do" "OP" nil))) (om-make-point 199 337) nil nil nil 0)) (quote ((1 0 0 0 nil 0) (3 0 2 0 nil 0) (0 0 3 0 nil 0) (2 0 5 0 nil 0))) 1 "file-box" nil) (om-load-boxcall (quote lispfun) "FIRST 2" (quote first) (quote ((om-load-inputfun (quote input-funbox) "LIST" "LIST" (list 2)))) (om-make-point 193 123) nil nil nil nil 1) (om-load-boxcall (quote lispfun) "FIRST" (quote first) (quote ((om-load-inputfun (quote input-funbox) "LIST" "LIST" nil))) (om-make-point 403 242) nil nil nil nil 1) (om-load-boxcall (quote lispfun) "REVERSE" (quote reverse) (quote ((om-load-inputfun (quote input-funbox) "SEQUENCE" "SEQUENCE" nil))) (om-make-point 357 196) nil nil nil nil 1) (om-load-boxcall (quote genfun) "collect" (quote listing) (quote ((om-load-inputfun (quote input-funbox) "anything" "DATA" nil))) (om-make-point 309 121) nil nil nil nil 3) (om-load-boxcall (quote genfun) "OM-RANDOM" (quote om-random) (quote ((om-load-inputfun (quote input-funbox) "min" "LOW" 1) (om-load-inputfun (quote input-funbox) "max" "HIGH" 12))) (om-make-point 162 35) nil nil nil nil 1) (om-load-boxcall (quote genfun) "while" (quote whileloop) (quote ((om-load-inputfun (quote input-funbox) "condition" "EXPR" 1))) (om-make-point 154 482) nil nil nil nil 0) (om-load-boxcall (quote genfun) "OM<" (quote om<) (quote ((om-load-inputfun (quote input-funbox) "a number" "NUM1" 0) (om-load-inputfun (quote input-funbox) "a number" "NUM2" 1))) (om-make-point 105 298) (om-make-point 20 35) nil nil nil 1) (om-load-boxcall (quote lispfun) "LENGTH" (quote length) (quote ((om-load-inputfun (quote input-funbox) "SEQUENCE" "SEQUENCE" nil))) (om-make-point 80 207) nil nil nil nil 1) (om-load-boxcall (quote lispfun) "REMOVE" (quote remove) (quote ((om-load-inputfun (quote input-funbox) "ITEM" "ITEM" nil) (om-load-inputfun (quote input-funbox) "SEQUENCE" "SEQUENCE" nil))) (om-make-point 93 140) nil nil nil nil 1) (om-load-boxcall (quote bastype) "list" (quote list) (quote nil) (om-make-point 489 290) (om-make-point 33 28) 59 "59" nil) (om-load-boxcall (quote genfun) "OM+" (quote om+) (quote ((om-load-inputfun (quote input-funbox) "number or list" "ARG1" 0) (om-load-inputfun (quote input-funbox) "number or list" "ARG2" 0))) (om-make-point 438 310) nil nil nil nil 1) (om-load-boxcall (quote bastype) "list 2" (quote list) (quote nil) (om-make-point 495 350) (om-make-point 39 28) 100 "100" nil) (om-load-boxcall (quote genfun) "OM*" (quote om*) (quote ((om-load-inputfun (quote input-funbox) "number or list" "ARG1" 0) (om-load-inputfun (quote input-funbox) "number or list" "ARG2" 0))) (om-make-point 455 381) nil nil nil nil 1) (om-load-boxin "input0" 0 (om-make-point 5 40) "" nil (list 1 0 3 0 5 0 7 0 9 0 11 0) nil) (om-load-seqbox "finally" (quote finaldo) (quote ((om-load-inputfun (quote input-funbox) "value to return" "VAL" nil))) (om-make-point 460 474) nil nil nil 0) (om-load-seqbox "eachTime" (quote loopdo) (quote ((om-load-inputfun (quote input-funbox) "operations to do" "OP" nil))) (om-make-point 287 475) nil nil nil 0)) (quote ((1 0 0 0 nil 0) (8 0 1 0 nil 0) (11 0 2 0 nil 0) (0 0 2 1 nil 0) (2 0 3 0 nil 0) (3 0 4 0 nil 0) (5 0 4 1 nil 0) (0 0 5 0 nil 0) (16 0 6 0 nil 0) (4 0 6 1 nil 0) (23 0 7 0 nil 0) (9 0 8 0 nil 0) (13 0 10 0 nil 0) (12 0 11 0 nil 0) (13 1 12 0 nil 0) (14 0 13 0 nil 0) (6 0 15 0 nil 0) (17 0 16 0 nil 0) (7 0 16 1 nil 0) (18 0 17 0 nil 0) (10 0 18 0 nil 0) (23 0 18 1 nil 0) (11 0 20 0 nil 0) (19 0 20 1 nil 0) (20 0 22 0 nil 0) (21 0 22 1 nil 0) (22 0 24 0 nil 0) (13 0 25 0 nil 0))) 1 "omloop" nil) (om-load-boxcall (quote bastype) "list 4" (quote list) (quote nil) (om-make-point 275 140) (om-make-point 33 28) 59 "59" nil) (om-load-boxcall (quote genfun) "OM+ 2" (quote om+) (quote ((om-load-inputfun (quote input-funbox) "number or list" "ARG1" 0) (om-load-inputfun (quote input-funbox) "number or list" "ARG2" 0))) (om-make-point 231 170) nil nil nil nil 1) (om-load-boxcall (quote bastype) "list 3" (quote list) (quote nil) (om-make-point 292 207) (om-make-point 39 28) 100 "100" nil) (om-load-boxcall (quote genfun) "OM* 2" (quote om*) (quote ((om-load-inputfun (quote input-funbox) "number or list" "ARG1" 0) (om-load-inputfun (quote input-funbox) "number or list" "ARG2" 0))) (om-make-point 252 238) nil nil nil nil 1) (om-load-boxcall (quote genfun) "OM/=" (quote om/=) (quote ((om-load-inputfun (quote input-funbox) "a number" "NUM1" 0) (om-load-inputfun (quote input-funbox) "a number" "NUM2" 0))) (om-make-point 162 298) nil nil nil nil 1) (om-load-boxcall (quote lispfun) "NTH 2" (quote nth) (quote ((om-load-inputfun (quote input-funbox) "ORIG-N" "ORIG-N" nil) (om-load-inputfun (quote input-funbox) "ORIG-LIST" "ORIG-LIST" nil))) (om-make-point 145 186) nil nil nil nil 1) (om-load-boxcall (quote genfun) "count" (quote counter) (quote ((om-load-inputfun (quote input-funbox) "things to count" "SOMETHING" 1))) (om-make-point 44 198) nil nil nil nil 3) (om-load-boxcall (quote genfun) "OMIF" (quote omif) (quote ((om-load-inputfun (quote input-funbox) "IF" "TEST" (quote t)) (om-load-inputfun (quote input-funbox) "THEN" "ACTION" nil) (om-load-inputfun (quote input-funbox) "ELSE" "ELSE" nil))) (om-make-point 245 329) nil nil nil nil 1) (om-load-boxcall (quote genfun) "while" (quote whileloop) (quote ((om-load-inputfun (quote input-funbox) "condition" "EXPR" nil))) (om-make-point 364 710) nil nil nil nil 0) (om-load-boxcall (quote genfun) "OM<" (quote om<) (quote ((om-load-inputfun (quote input-funbox) "a number" "NUM1" 0) (om-load-inputfun (quote input-funbox) "a number" "NUM2" 12))) (om-make-point 418 647) nil nil nil nil 1) (om-load-boxcall (quote lispfun) "LENGTH" (quote length) (quote ((om-load-inputfun (quote input-funbox) "SEQUENCE" "SEQUENCE" nil))) (om-make-point 407 588) nil nil nil nil 1) (om-load-boxcall (quote genfun) "collect" (quote listing) (quote ((om-load-inputfun (quote input-funbox) "anything" "DATA" nil))) (om-make-point 235 401) nil nil nil nil 3) (om-load-boxin "input 3" 2 (om-make-point 105 44) "" "input 3" (list 1 0 3 0 5 0 7 0 9 0 11 0) nil) (om-load-boxin "input 2" 1 (om-make-point 55 45) "" nil nil nil) (om-load-boxin "input" 0 (om-make-point 5 45) "" nil nil nil) (om-load-seqbox "finally" (quote finaldo) (quote ((om-load-inputfun (quote input-funbox) "value to return" "VAL" nil))) (om-make-point 165 604) nil nil nil 0) (om-load-seqbox "eachTime" (quote loopdo) (quote ((om-load-inputfun (quote input-funbox) "operations to do" "OP" nil) (om-load-inputfun (quote input-funbox) "other oprations" "MORE" nil) (om-load-inputfun (quote input-funbox) "other oprations" "MORE" nil))) (om-make-point 124 506) nil nil nil 0)) (quote ((0 0 1 0 nil 0) (17 1 2 0 nil 0) (2 0 3 0 nil 0) (18 0 5 0 nil 0) (11 0 7 0 nil 0) (6 0 7 1 nil 0) (7 0 9 0 nil 0) (8 0 9 1 nil 0) (11 0 10 0 nil 0) (4 0 10 1 nil 0) (12 1 11 0 nil 0) (18 0 11 1 nil 0) (10 0 13 0 nil 0) (9 0 13 1 nil 0) (5 0 13 2 nil 0) (15 0 14 0 nil 0) (16 0 15 0 nil 0) (17 1 16 0 nil 0) (13 0 17 0 nil 0) (17 1 21 0 nil 0) (17 0 22 0 nil 0) (12 0 22 1 nil 0) (3 0 22 2 nil 0))) 1 "omloop" nil) (om-load-boxcall (quote lispfun) "REST 2" (quote rest) (quote ((om-load-inputfun (quote input-funbox) "LIST" "LIST" nil))) (om-make-point 266 140) nil nil nil nil 1) (om-load-boxcall (quote lispfun) "REST" (quote rest) (quote ((om-load-inputfun (quote input-funbox) "LIST" "LIST" nil))) (om-make-point 192 111) nil nil nil nil 1) (om-load-boxcall (quote lispfun) "SECOND" (quote second) (quote ((om-load-inputfun (quote input-funbox) "LIST" "LIST" nil))) (om-make-point 72 120) nil nil nil nil 1) (om-load-boxcall (quote lispfun) "FIRST" (quote first) (quote ((om-load-inputfun (quote input-funbox) "LIST" "LIST" nil))) (om-make-point 10 122) nil nil nil nil 1) (om-load-boxout "output" 0 (om-make-point 217 331) (quote ((om-load-inputfun (quote input-funbox) "" "out" nil))) nil nil) (om-load-boxin "input" 0 (om-make-point 55 35) "" nil (list 1 7 1 0 3 0 5 0 7 0 9 0 11 0) nil))) (quote ((7 0 3 0 nil 0) (6 0 3 1 nil 0) (4 0 3 2 nil 0) (5 0 4 0 nil 0) (9 0 5 0 nil 0) (9 0 6 0 nil 0) (9 0 7 0 nil 0) (3 0 8 0 nil 0))) nil 6.070009))